<svg width="93" height="107" viewBox="0 0 93 107" fill="none" xmlns="http://www.w3.org/2000/svg">
<path d="M59.7468 41.2038C58.4411 42.713 57.16 44.1935 55.8544 45.7026C55.6617 45.542 55.5092 45.4168 55.3589 45.2897C53.3507 43.5923 51.3761 41.8529 49.3255 40.2088C47.3161 38.5979 45.1355 37.2474 42.7217 36.3075C40.7132 35.5253 38.6385 35.1233 36.4937 35.3954C33.1252 35.8226 30.2183 37.2336 28.0145 39.8652C25.5744 42.7788 25.3343 46.6708 27.3023 49.9603C28.703 52.3016 30.7749 53.8183 33.299 54.7421C35.4152 55.5162 37.6161 55.8289 39.8505 55.629C41.9986 55.4368 44.138 55.1239 46.2724 54.8058C50.0043 54.2496 53.7245 53.6145 57.4592 53.0804C59.6152 52.772 61.7887 52.5662 64.0542 52.7606C63.9825 52.1685 63.9049 51.6175 63.8513 51.0639C63.7384 49.8945 63.5973 48.7258 63.5407 47.5533C63.3702 44.0271 63.4387 40.5005 63.5916 36.9747C63.7038 34.3825 63.7943 31.7892 63.912 29.1973C64.0415 26.3405 64.1009 23.4841 64.0014 20.6249C63.9053 17.8586 63.3617 15.1976 62.1616 12.6931C61.1065 10.4916 59.587 8.72888 57.3326 7.6887C55.9747 7.06216 54.5321 6.74854 53.0521 6.70316C51.9057 6.66824 50.7453 6.7072 49.6079 6.84786C47.8812 7.06121 46.4521 7.94364 45.2449 9.16605C43.0659 11.3721 41.826 14.0284 41.741 17.1456C41.6634 19.9925 42.8252 22.213 45.3621 23.6119C45.8723 23.8935 46.4242 24.0993 46.959 24.3347C47.1387 24.4141 47.3253 24.4777 47.5713 24.5723C46.9474 26.4645 46.3356 28.3203 45.7236 30.1776C45.6242 30.1776 45.5619 30.1921 45.5093 30.1755C42.5399 29.2415 40.0093 27.661 38.156 25.1024C36.6397 23.0092 35.8868 20.6439 35.758 18.0744C35.4569 12.0642 38.7528 6.00844 43.4 2.95941C45.4961 1.58398 47.7917 0.870726 50.2853 0.727933C52.0868 0.62458 53.8761 0.652616 55.6586 0.960537C60.4095 1.78118 64.0756 4.23029 66.6089 8.34445C68.2663 11.0361 69.2311 13.9897 69.6849 17.1097C70.1715 20.4548 70.0848 23.8229 69.9901 27.1868C69.9295 29.3344 69.8017 31.4801 69.715 33.627C69.5514 37.6779 69.3423 41.7291 69.4631 45.7853C69.5239 47.8315 69.6473 49.875 70.0285 51.8927C70.3609 53.652 70.7693 55.3817 72 56.8063C70.5117 58.1242 69.0476 59.4203 67.5657 60.7325C67.4648 60.6475 67.3618 60.5826 67.287 60.494C66.2763 59.297 64.9336 58.8318 63.4285 58.7448C61.6871 58.6439 59.9538 58.7821 58.2346 59.0392C54.1043 59.6572 49.9804 60.316 45.8515 60.9419C44.2559 61.1837 42.6597 61.4601 41.0532 61.5846C35.7819 61.9925 30.8272 61.0476 26.4871 57.8273C23.3356 55.4889 21.209 52.4118 20.376 48.5481C19.2895 43.5078 20.5702 39.0505 24.0532 35.2918C26.982 32.1313 30.6627 30.2867 34.8894 29.5549C38.6908 28.8965 42.3206 29.5691 45.8233 31.0878C48.6232 32.3017 51.1692 33.9451 53.5294 35.8646C55.5845 37.5361 57.5686 39.295 59.5835 41.0166C59.6287 41.0553 59.663 41.1069 59.7468 41.2038Z" fill="#231F20"/>
<path d="M61.5715 91.3269C61.6891 91.5067 61.7962 91.6795 61.9121 91.8463C63.9406 94.7631 65.9699 97.6797 68.0009 100.595C68.1534 100.814 68.3214 101.021 68.4815 101.235C69.6425 102.783 70.0751 104.546 69.9895 106.461C69.9881 106.499 69.9584 106.535 69.9417 106.572C69.4969 106.692 64.9797 106.714 64.3374 106.596C64.2748 106.197 64.2397 105.785 64.1414 105.389C63.9514 104.623 63.6046 103.922 63.1562 103.276C61.3521 100.678 59.5444 98.0833 57.7371 95.4881C57.6695 95.3912 57.5899 95.3027 57.4852 95.172C56.8131 95.8163 56.2091 96.4977 55.5032 97.0456C54.693 97.6741 54.4513 98.4146 54.4881 99.4303C54.5665 101.592 54.512 103.759 54.512 105.924V106.628H49V72.6872C50.8041 72.6623 52.6078 72.6809 54.4857 72.6758C54.5424 74.6981 54.5032 76.6886 54.5106 78.678C54.5178 80.6574 54.512 82.6366 54.512 84.616V90.7054C54.7054 90.5457 54.8175 90.4703 54.909 90.3748C56.7414 88.4666 58.5713 86.5561 60.4012 84.6453C60.4863 84.5566 60.5686 84.4648 60.6496 84.3722C61.3934 83.5228 62.0519 82.6361 61.8686 81.4157C62.3285 81.2502 66.899 81.2144 67.629 81.364C67.7999 82.0704 67.6945 82.7842 67.5623 83.487C67.3522 84.6052 66.8481 85.5655 66.0567 86.399C64.6307 87.9007 63.2487 89.4456 61.8502 90.9741C61.7548 91.0783 61.6743 91.196 61.5715 91.3269Z" fill="#231F20"/>
<path fill-rule="evenodd" clip-rule="evenodd" d="M76.7723 95.3577H92.4717C92.4966 95.2766 92.5196 95.2037 92.5408 95.1361C92.5841 94.9984 92.6204 94.8829 92.6522 94.766C93.0461 93.3182 93.0814 91.8485 92.8782 90.371C92.4366 87.1613 90.9082 84.6624 88.0952 83.0954C85.536 81.6699 82.7596 81.3637 79.9447 81.9663C76.3328 82.7397 73.7975 85.0188 72.2878 88.3934C70.742 91.8492 70.603 95.4754 71.7891 99.0553C73.1168 103.062 75.8928 105.561 79.9813 106.454C81.4119 106.766 82.8627 106.702 84.3101 106.533C86.0417 106.33 87.692 105.849 89.2458 105.043C89.9586 104.674 90.5918 104.191 91.1303 103.515L88.7848 99.4214C88.7418 99.4399 88.7092 99.4525 88.6836 99.4623C88.6425 99.4781 88.6199 99.4869 88.602 99.5016C88.4791 99.6039 88.3583 99.7091 88.24 99.8168C86.2847 101.596 83.9709 102.095 81.4661 101.632C78.6224 101.107 76.6913 98.4745 76.7723 95.3577ZM84.2807 86.8518C86.0479 87.3922 87.3621 89.0026 87.5086 90.8667H76.9588C76.9749 90.7972 76.9886 90.7316 77.0017 90.6688C77.028 90.5425 77.0519 90.428 77.0885 90.3178C77.7892 88.2036 79.8002 86.6812 81.9853 86.5998C82.7633 86.5706 83.5311 86.6228 84.2807 86.8518Z" fill="#231F20"/>
<path fill-rule="evenodd" clip-rule="evenodd" d="M10.1801 86.8236C12.1884 86.9491 13.5284 88.381 13.5557 90.4156C13.544 90.4195 13.532 90.4252 13.5199 90.4309C13.4941 90.443 13.4683 90.4552 13.4462 90.4503C12.07 90.143 10.6874 90.196 9.30231 90.3721C6.98199 90.6675 4.87422 91.47 3.06623 92.971C0.901907 94.7673 -0.161323 97.032 0.0198355 99.865C0.239575 103.301 3.1465 106.382 6.6053 106.631C9.45304 106.837 12.1467 106.329 14.4129 104.423C14.4419 104.398 14.4778 104.382 14.5198 104.362C14.5418 104.352 14.5656 104.341 14.5909 104.328C14.6123 104.353 14.6344 104.376 14.6565 104.4C14.703 104.45 14.7492 104.499 14.7869 104.554C15.5072 105.602 16.5261 106.206 17.7626 106.412C18.3804 106.514 19.008 106.56 19.6353 106.605C19.863 106.622 20.0907 106.638 20.3178 106.658C20.464 106.67 20.6114 106.667 20.7678 106.663C20.8429 106.662 20.92 106.66 21 106.66V103.43C19.6976 102.834 19.343 101.71 19.2747 100.43C19.2621 100.194 19.2627 99.9581 19.2632 99.722C19.2633 99.6742 19.2634 99.6264 19.2634 99.5786C19.2631 98.7475 19.2635 97.9163 19.2638 97.0851C19.2646 95.3615 19.2654 93.6378 19.2601 91.9142C19.256 90.5325 19.1383 89.1615 18.7854 87.8183C18.0861 85.1586 16.5139 83.2661 13.8435 82.3849C11.5311 81.622 9.15518 81.4888 6.76369 81.9096C5.16729 82.1903 3.64301 82.7199 2.25437 83.5713C1.9506 83.7577 1.66593 83.9749 1.3801 84.193C1.2497 84.2925 1.11906 84.3922 0.986256 84.4892C1.34069 85.1858 1.68785 85.8682 2.03323 86.5471C2.50278 87.47 2.96904 88.3865 3.4458 89.3234C3.52932 89.2421 3.60636 89.1681 3.67871 89.0986C3.82204 88.961 3.94692 88.8411 4.06716 88.7168C4.82222 87.9362 5.74 87.4328 6.77999 87.1319C7.8933 86.8098 9.03201 86.7518 10.1801 86.8236ZM8.40251 95.3829C10.0881 94.6337 11.8278 94.5372 13.6681 95.0128C13.6681 95.329 13.6683 95.6428 13.6684 95.9546C13.6691 97.1149 13.6697 98.2481 13.6614 99.3816C13.6604 99.5094 13.5974 99.6639 13.5114 99.7607C11.8896 101.586 9.99795 102.367 7.54392 101.835C6.23555 101.551 5.63864 100.806 5.56627 99.4845C5.51283 98.5114 5.8047 97.6447 6.42773 96.8913C6.96785 96.2376 7.62755 95.7273 8.40251 95.3829Z" fill="#231F20"/>
<path d="M24.0297 72.6739H29.3096C29.3169 72.8993 29.3312 73.1334 29.3312 73.3675C29.3326 77.7328 29.3324 82.0977 29.3324 86.4628C29.3324 90.3384 29.3305 94.2138 29.3356 98.0895C29.336 98.4345 29.36 98.7829 29.4097 99.1238C29.6159 100.533 30.5961 101.458 31.9653 101.542C32.2755 101.561 32.588 101.545 32.9804 101.545C33.0166 103.253 32.9899 104.914 32.9984 106.66C32.6626 106.665 32.3579 106.672 32.0529 106.674C30.7678 106.682 29.5086 106.509 28.2951 106.058C25.9128 105.173 24.5483 103.4 24.1388 100.827C24.0465 100.247 24.0067 99.6515 24.006 99.0629C23.9977 90.4757 24 81.8882 24.0012 73.3008C24.0012 73.1019 24.0189 72.9032 24.0297 72.6739Z" fill="#231F20"/>
<path d="M43.9989 106.674H38.6373V105.907C38.6373 100.723 38.6396 95.5391 38.6329 90.355C38.6325 89.9447 38.6052 89.5271 38.5296 89.1256C38.2896 87.8533 37.3302 86.9879 36.0905 86.9056C35.741 86.8823 35.3889 86.9019 35 86.9019V81.7387C35.7141 81.6196 36.4193 81.691 37.1179 81.7445C38.064 81.8171 38.991 82.0188 39.8783 82.3819C42.1059 83.293 43.4128 85.0073 43.8331 87.4539C43.9475 88.12 43.9903 88.8077 43.9919 89.486C44.0042 95.0005 43.9989 100.515 43.9989 106.03V106.674Z" fill="#231F20"/>
<path d="M45 77.6713C44.9982 79.3549 43.6795 80.673 41.9962 80.6739C40.3172 80.6748 39.0018 79.3545 39 77.6663C38.998 75.963 40.2911 74.6714 41.996 74.6739C43.6894 74.6761 45.002 75.986 45 77.6713Z" fill="#231F20"/>
</svg>
